<svg width="49" height="48" viewBox="0 0 49 48" fill="none"
                                xmlns="http://www.w3.org/2000/svg">
                                <path
                                    d="M8.66103 2.19746C8.37744 2.48106 8.37744 2.80762 8.60947 4.38028C9.09931 7.74903 10.311 10.5764 12.236 12.8795C13.4134 14.2803 14.7282 15.2943 16.4727 16.1451C18.0884 16.9272 19.3603 17.3139 21.2337 17.5889C21.7235 17.6576 22.136 17.735 22.1446 17.7436C22.1532 17.7607 22.0243 21.0779 21.8524 25.117C21.5431 32.31 21.5345 32.4647 21.3712 32.4389C21.0962 32.3959 19.8243 31.7686 19.2829 31.4162C18.5696 30.9436 17.4524 29.8436 16.9454 29.1045C16.361 28.2537 15.8712 27.1881 15.5962 26.1654C15.3899 25.4264 15.3642 25.1686 15.3727 23.9568C15.3727 22.8311 15.4071 22.4615 15.5532 21.9201C15.811 20.9748 16.1892 20.0725 16.636 19.3334C16.8509 18.9725 17.0313 18.5857 17.0313 18.4568C17.0313 18.1475 16.679 17.8123 16.3352 17.8123C15.9743 17.8123 15.7079 18.1131 15.1665 19.1529C14.2727 20.8889 13.9892 22.049 13.9892 23.9998C13.9892 24.9709 14.0235 25.5295 14.1438 26.0623C15.0376 30.2045 18.2259 33.324 22.4024 34.149C23.2876 34.3295 25.4017 34.3037 26.3126 34.1061C30.3774 33.2295 33.4798 30.1272 34.3563 26.0623C34.4767 25.5295 34.511 24.9709 34.511 23.9998C34.511 22.049 34.2274 20.8889 33.3337 19.1529C32.7923 18.1131 32.5259 17.8123 32.1649 17.8123C31.8212 17.8123 31.4688 18.1475 31.4688 18.4568C31.4688 18.5857 31.6493 18.9725 31.8642 19.3334C32.311 20.0725 32.6892 20.9662 32.947 21.9201C33.0931 22.4615 33.1274 22.8311 33.1274 23.9568C33.1274 25.1686 33.1017 25.435 32.904 26.1654C32.6376 27.1881 32.1392 28.2537 31.5548 29.1045C31.0478 29.8436 29.9306 30.9436 29.2173 31.4162C28.6759 31.7686 27.404 32.3959 27.129 32.4389C26.9657 32.4647 26.9571 32.31 26.6478 25.117C26.4759 21.0779 26.347 17.7607 26.3556 17.7436C26.3728 17.7264 26.7938 17.6576 27.3095 17.5889C30.9188 17.0818 34.0985 15.4318 36.1696 12.9826C38.1978 10.5936 39.4868 7.55137 39.9337 4.12246C40.0884 2.91075 40.097 2.67871 39.9681 2.39512C39.7962 2.02559 39.4868 1.96543 38.1376 2.03418C35.0868 2.18027 32.586 2.79043 30.3431 3.95059C27.6704 5.32559 25.3759 7.98106 24.4735 10.7397C24.3876 10.9889 24.2931 11.1951 24.2501 11.1951C24.2071 11.1951 24.1126 10.9889 24.0353 10.7397C23.3649 8.68575 21.6634 6.36543 19.7899 4.95606C17.461 3.21153 14.1353 2.18887 10.2337 2.02559L8.88447 1.97403L8.66103 2.19746ZM12.9493 3.68418C17.4696 4.46621 20.529 6.53731 22.2478 10.0006C22.454 10.4217 22.7376 11.1092 22.8751 11.5303C23.1415 12.3467 23.511 14.1342 23.4595 14.3061C23.4337 14.3662 23.2962 14.2201 23.1329 13.9795C21.1134 11.0147 16.9454 7.11309 12.6571 4.15684C11.6602 3.47793 11.6688 3.46074 12.9493 3.68418ZM36.6251 3.58965C36.6251 3.60684 36.3243 3.83028 35.9634 4.07949C31.8985 6.81231 27.5587 10.8428 25.4532 13.8506C25.247 14.1428 25.0665 14.3576 25.0407 14.3404C24.9806 14.2717 25.1954 13.1029 25.4274 12.2264C25.9774 10.1467 26.9056 8.51387 28.3665 7.07012C29.7415 5.71231 31.4173 4.7584 33.5056 4.13965C34.5626 3.82168 36.6251 3.46074 36.6251 3.58965ZM13.6196 6.56309C16.5845 8.80606 19.2915 11.3412 21.0446 13.5154C21.6978 14.3232 23.047 16.2482 23.047 16.3686C23.047 16.4287 22.4798 16.3772 21.3282 16.2139C15.0032 15.3115 11.0243 11.1522 9.9415 4.32871L9.88134 3.95059L11.222 4.86153C11.961 5.35996 13.0352 6.12481 13.6196 6.56309ZM38.4728 4.80137C37.3384 11.2811 33.2993 15.3545 27.1634 16.2139C25.9946 16.3772 25.4532 16.4287 25.4532 16.3686C25.4532 16.3428 25.7454 15.8873 26.0978 15.3545C28.4181 11.8654 32.5345 8.03262 37.5618 4.66387C38.1118 4.29434 38.5673 4.00215 38.5845 4.01074C38.5931 4.02793 38.5415 4.38028 38.4728 4.80137ZM24.9462 17.8295C25.0149 18.0186 25.5821 32.7482 25.522 32.8084C25.479 32.86 24.9376 32.8943 24.2501 32.8943C23.5626 32.8943 23.0212 32.86 22.9782 32.8084C22.9181 32.7482 23.4853 17.9928 23.554 17.8295C23.5626 17.8209 23.872 17.8123 24.2501 17.8123C24.6282 17.8123 24.9376 17.8209 24.9462 17.8295Z"
                                    fill="#52C3D2" />
                                <path
                                    d="M7.48359 9.62266C7.3375 9.65704 6.42656 10.6453 6.16875 11.0406C6.04844 11.2297 6.03125 11.3328 6.1 11.5305C6.15156 11.6594 6.72734 12.5789 7.38047 13.5672L8.575 15.3633L8.12813 16.3086C7.87891 16.8242 7.55234 17.6234 7.39766 18.0703C7.25156 18.5172 7.07969 18.9297 7.02813 18.9813C6.97656 19.0328 5.97109 19.2648 4.78516 19.4969C3.03203 19.8406 2.60234 19.9523 2.43906 20.107L2.25 20.2961V24V27.7039L2.44766 27.893C2.60234 28.0477 3.03203 28.1594 4.78516 28.5031C5.97109 28.7352 6.97656 28.9672 7.02813 29.0188C7.07969 29.0703 7.25156 29.4828 7.39766 29.9297C7.55234 30.3766 7.87891 31.1672 8.12813 31.6914L8.575 32.6367L7.30312 34.5531C6.60703 35.6102 6.03125 36.5383 6.03125 36.6156C6.03125 36.882 6.27187 37.1484 8.55781 39.4602C10.8352 41.7547 11.3508 42.2188 11.6258 42.2188C11.7117 42.2188 12.6398 41.643 13.6969 40.9469L15.6133 39.675L16.5586 40.1219C17.0828 40.3711 17.8734 40.6977 18.3203 40.8523C18.7672 40.9984 19.1797 41.1703 19.2313 41.2219C19.2828 41.2734 19.5148 42.2789 19.7469 43.4648C20.0906 45.218 20.2023 45.6477 20.357 45.8109L20.5461 46H24.25H27.9539L28.143 45.8023C28.2977 45.6477 28.4094 45.218 28.7531 43.4648C28.9852 42.2789 29.2086 41.2734 29.2516 41.2133C29.2945 41.1617 29.4492 41.0844 29.5867 41.0586C29.9906 40.9641 31.4688 40.3711 32.2078 40.0016L32.8781 39.6664L34.7945 40.9383C35.8516 41.643 36.7797 42.2188 36.8484 42.2188C36.9172 42.2188 37.0805 42.1672 37.2094 42.0984C37.5359 41.9266 42.3484 37.0625 42.4172 36.8391C42.5031 36.5555 42.3828 36.332 41.1109 34.4242L39.925 32.6367L40.3719 31.6914C40.6211 31.1672 40.9477 30.3766 41.1023 29.9297C41.2484 29.4828 41.4203 29.0703 41.4719 29.0188C41.5234 28.9672 42.5289 28.7352 43.7148 28.5117C45.4938 28.1594 45.8977 28.0563 46.0523 27.9016L46.25 27.7039V24V20.2961L46.0609 20.107C45.8977 19.9438 45.4852 19.8406 43.7148 19.4883C42.5375 19.2563 41.5234 19.0328 41.4719 18.9813C41.4203 18.9297 41.2484 18.5172 41.1023 18.0703C40.9477 17.6234 40.6211 16.8242 40.3719 16.3086L39.925 15.3633L41.1195 13.5672C41.7727 12.5789 42.3484 11.668 42.4 11.5305C42.4602 11.3672 42.4516 11.2383 42.3742 11.0922C42.1766 10.7227 41.1539 9.65704 40.9391 9.60547C40.5008 9.49375 40.0625 9.86329 40.0625 10.3359C40.0625 10.4305 40.2344 10.6969 40.4492 10.9375C40.6641 11.1781 40.8359 11.4016 40.8359 11.4359C40.8359 11.4703 40.2945 12.3039 39.6328 13.3008C38.9367 14.3406 38.4297 15.1914 38.4297 15.3031C38.4297 15.4148 38.6961 16.0594 39.0227 16.7211C39.3578 17.3914 39.7617 18.3883 39.9422 18.9297C40.1141 19.4797 40.3375 19.9953 40.4406 20.0984C40.5867 20.2445 41.0508 20.3648 42.7523 20.7L44.875 21.1125V24V26.8875L42.7438 27.3C41.0508 27.6352 40.5867 27.7555 40.4406 27.9016C40.3375 28.0047 40.1141 28.5203 39.9422 29.0703C39.7617 29.6117 39.3578 30.6086 39.0227 31.2789C38.6961 31.9406 38.4297 32.5766 38.4297 32.6883C38.4297 32.8086 38.9539 33.6852 39.65 34.725L40.8703 36.5555L38.8336 38.5836L36.8055 40.6203L34.975 39.4C33.918 38.6953 33.0586 38.1797 32.9383 38.1797C32.8266 38.1797 32.1906 38.4461 31.5203 38.7813C30.8586 39.1078 29.8617 39.5203 29.3203 39.6922C28.7703 39.8641 28.2547 40.0875 28.1516 40.1906C28.0055 40.3367 27.8852 40.8008 27.55 42.4938L27.1375 44.625H24.25H21.3625L20.95 42.4938C20.6148 40.8008 20.4945 40.3367 20.3484 40.1906C20.2453 40.0875 19.7297 39.8641 19.1797 39.6922C18.6383 39.5117 17.6414 39.1078 16.9711 38.7727C16.3094 38.4461 15.6734 38.1797 15.5617 38.1797C15.4414 38.1797 14.5648 38.7039 13.525 39.4L11.6945 40.6203L9.66641 38.5836L7.62969 36.5555L8.85 34.725C9.55469 33.668 10.0703 32.8086 10.0703 32.6883C10.0703 32.5766 9.80391 31.9406 9.46875 31.2703C9.14219 30.6086 8.72969 29.6117 8.55781 29.0703C8.38594 28.5289 8.17109 28.0047 8.08516 27.9016C7.95625 27.7641 7.49219 27.6438 5.77344 27.3L3.625 26.8789V24V21.1211L5.77344 20.7C7.50078 20.3563 7.95625 20.2359 8.07656 20.0984C8.17109 19.9953 8.38594 19.4539 8.575 18.8867C8.75547 18.3195 9.16797 17.3313 9.48594 16.6867C9.80391 16.0422 10.0703 15.4234 10.0703 15.3117C10.0703 15.1914 9.57188 14.3578 8.86719 13.3008C8.20547 12.3039 7.66406 11.4531 7.66406 11.4102C7.66406 11.3586 7.81875 11.1695 7.99922 10.9891C8.38594 10.6109 8.48906 10.3188 8.35156 9.99219C8.21406 9.66563 7.87031 9.51094 7.48359 9.62266Z"
                                    fill="#52C3D2" />
                                <path
                                    d="M13.4224 16.7637C13.0529 17.159 12.1506 18.9551 11.8412 19.9176C10.6037 23.8105 11.1709 27.9098 13.431 31.3129C14.1529 32.3957 15.8545 34.0973 16.9373 34.8191C18.4326 35.8074 20.2029 36.5293 21.9732 36.8559C23.1592 37.0793 25.342 37.0793 26.5279 36.8559C29.2607 36.3488 31.4779 35.1801 33.4545 33.2035C35.4396 31.2184 36.5998 29.0184 37.1068 26.277C37.3217 25.1168 37.3303 22.8223 37.1154 21.7223C36.7975 20.1152 36.2389 18.6113 35.474 17.3309C34.9326 16.4113 34.5201 16.2137 34.0904 16.652C33.781 16.9527 33.824 17.2277 34.3053 18.0613C36.0584 21.1035 36.4107 24.5668 35.285 27.798C34.6834 29.5254 33.781 30.9691 32.5006 32.2496C30.8592 33.891 28.7967 34.991 26.442 35.4809C25.3764 35.6957 23.1334 35.7043 22.1021 35.4895C19.6787 34.9738 17.6506 33.8996 16.0006 32.2496C14.6685 30.9176 13.7748 29.4566 13.1646 27.6176C12.3912 25.3059 12.3826 22.7191 13.1303 20.416C13.3795 19.634 13.9639 18.3879 14.3506 17.7777C14.6857 17.2621 14.7029 16.9355 14.4107 16.652C14.1014 16.334 13.8006 16.377 13.4224 16.7637Z"
                                    fill="#52C3D2" />
                            </svg>