 <svg width="49" height="48" viewBox="0 0 49 48" fill="none"
                                xmlns="http://www.w3.org/2000/svg">
                                <path
                                    d="M20.2566 1.1049C18.5859 1.43504 17.0152 3.02571 16.655 4.74644C16.545 5.27667 16.525 5.29668 16.2149 5.29668C15.7246 5.29668 14.7742 5.56679 14.0539 5.91694C13.2036 6.32711 12.0031 7.51762 11.5929 8.34797L11.3028 8.94823L10.4524 8.95823C8.86174 8.97824 7.61121 9.51847 6.44072 10.689C5.31024 11.8294 4.75 13.13 4.75 14.6506C4.75 15.561 4.95008 16.3514 5.4503 17.3518L5.84046 18.1621L5.87047 23.4544L5.90049 28.7566L6.18061 29.3269C6.66081 30.3073 7.51117 30.8375 8.59163 30.8275C8.93177 30.8275 9.32194 30.7775 9.482 30.7174L9.75212 30.6074V34.9592V39.3111H9.01181C8.32151 39.3111 8.25148 39.3311 8.0514 39.5812C7.84131 39.8513 7.83131 39.9414 7.87132 41.6621C7.90134 43.2427 7.93135 43.5229 8.12143 43.933C8.44156 44.6333 9.15187 45.3436 9.88217 45.6738L10.5024 45.9639L23.3579 45.9939C32.1416 46.0139 36.4334 45.9839 36.9036 45.9139C38.1441 45.7238 39.0145 45.0635 39.5547 43.923C39.8049 43.3828 39.8149 43.3028 39.8149 41.552C39.8149 39.3111 39.8149 39.3111 38.6944 39.3111H37.9641V36.2598V33.2085H39.9449C41.2855 33.2085 42.0758 33.1585 42.426 33.0684C44.1967 32.5982 45.6373 31.0476 45.9575 29.2668C46.0975 28.4865 46.0975 23.1242 45.9575 22.3439C45.6273 20.5431 44.0967 18.9124 42.3359 18.5023C42.1058 18.4523 41.0254 18.4022 39.9449 18.4022H37.9641V16.7515V15.1008L38.3242 14.6306C40.155 12.2396 39.9449 9.02826 37.824 6.94738C36.6035 5.74687 35.2629 5.23665 33.5122 5.31669C32.3817 5.37671 31.6414 5.59681 30.741 6.14704L30.1808 6.49719L29.6806 6.15704C28.9202 5.64683 28.0599 5.38671 26.9494 5.32669L25.989 5.26667L25.879 4.70642C25.3687 2.22538 22.8277 0.604691 20.2566 1.1049ZM22.6176 2.83563C23.678 3.32584 24.3583 4.33627 24.4283 5.54678C24.4884 6.5272 24.5284 6.67727 24.8085 6.85734C25.0186 6.9974 25.1386 6.9974 25.8089 6.88735C27.1395 6.65725 28.32 6.9874 29.4104 7.88778C30.0707 8.43801 30.3008 8.42801 31.0812 7.79774C33.6622 5.71686 37.3738 7.11745 37.9841 10.3988C38.3642 12.4397 36.9336 14.6006 34.8227 15.1609C34.5426 15.2409 34.1525 15.3009 33.9524 15.3009C33.5122 15.3009 33.062 15.6211 33.062 15.9312C33.062 16.3614 32.8519 16.8916 32.4617 17.4818L32.0616 18.0821V22.494C32.0616 27.246 32.0616 27.286 31.5413 27.6461C31.2512 27.8462 30.5709 27.8462 30.2808 27.6461C29.7606 27.286 29.7606 27.246 29.7606 22.564C29.7606 19.5427 29.7306 18.1321 29.6505 17.962C29.4905 17.6119 29.0503 17.4518 28.6501 17.5919C27.6297 17.952 26.9494 17.4318 26.3692 15.8812C26.1591 15.3109 26.039 15.1208 25.8189 15.0108C25.5688 14.8907 25.4888 14.9007 25.1987 15.0408C24.8285 15.2109 24.7985 15.3009 24.7185 16.3414C24.5484 18.5523 22.5175 20.133 20.3266 19.7828C19.5363 19.6628 18.946 19.3726 18.3157 18.7924C17.6355 18.1721 17.2653 17.4218 17.1152 16.3914C16.9652 15.3309 16.7751 15.1509 15.9147 15.2409C14.8143 15.3509 14.104 15.9212 13.5237 17.1717C12.9535 18.4022 12.5433 18.7324 11.4028 18.8924C11.0227 18.9525 10.6825 18.9725 10.6425 18.9525C10.5124 18.8724 9.9522 19.1225 9.85216 19.3026C9.79214 19.4227 9.75212 21.2334 9.75212 23.9546C9.75212 28.8467 9.75212 28.8467 9.15187 29.1568C8.68167 29.3969 8.20146 29.3469 7.83131 29.0167L7.50117 28.7266L7.45114 23.1843L7.40112 17.6519L7.07098 17.1317C6.53075 16.2713 6.31066 15.561 6.31066 14.6506C6.32067 13.21 6.99095 11.9495 8.18145 11.1892C9.11185 10.5889 9.68209 10.4589 11.0227 10.5389C12.0631 10.5989 12.1631 10.5889 12.3532 10.3988C12.4633 10.2888 12.5833 10.0787 12.6133 9.92864C12.7534 9.3684 13.2836 8.46802 13.7338 8.01783C13.9939 7.76773 14.5341 7.40757 14.9243 7.21749C15.5646 6.91737 15.7847 6.86734 16.7151 6.80732C17.9756 6.72728 18.0056 6.70728 18.0856 5.65683C18.1457 4.78646 18.3958 4.1762 18.906 3.60596C19.8664 2.54551 21.317 2.24538 22.6176 2.83563ZM36.3634 25.4052V34.5091H23.8081H11.2528V27.5061V20.5031L11.5329 20.4531C12.9135 20.153 13.4337 19.9129 14.0439 19.2526C14.274 19.0025 14.6142 18.4923 14.7843 18.1221C15.1144 17.3818 15.4245 16.9016 15.5546 16.9016C15.5946 16.9016 15.6646 17.0717 15.7046 17.2718C15.8347 18.0121 16.445 19.0825 17.0852 19.7428C19.1961 21.8737 22.4075 21.9437 24.5884 19.9129C24.9285 19.5827 25.3487 19.0725 25.5088 18.7824C25.6589 18.4923 25.8089 18.2322 25.8289 18.2121C25.8489 18.1821 26.009 18.3022 26.1891 18.4723C26.6193 18.8924 27.0494 19.0925 27.6797 19.1826L28.2099 19.2526L28.26 23.4043L28.31 27.5561L28.5901 28.0263C29.0803 28.8667 29.9207 29.3369 30.9211 29.3369C31.6814 29.3269 32.3117 29.0667 32.8419 28.5165C33.5522 27.7862 33.5622 27.7162 33.5622 22.8841V18.5923L33.8723 18.1421C34.0424 17.892 34.2425 17.4918 34.3225 17.2517C34.4726 16.8316 34.5026 16.8116 34.9928 16.7015C35.2829 16.6415 35.6531 16.5314 35.8132 16.4514C35.9832 16.3814 36.1733 16.3113 36.2433 16.3113C36.3334 16.3013 36.3634 18.1821 36.3634 25.4052ZM42.586 20.223C43.2463 20.5331 43.8666 21.1334 44.1867 21.7837C44.4168 22.2439 44.4168 22.2939 44.4168 25.8054C44.4168 29.3169 44.4168 29.3669 44.1867 29.8271C43.8666 30.4773 43.2463 31.0776 42.586 31.3877C42.0358 31.6478 41.9358 31.6578 39.9949 31.6879L37.9641 31.7179V25.8054V19.8929L39.9949 19.9229C41.9358 19.9529 42.0358 19.9629 42.586 20.223ZM36.3634 37.7104V39.3111L23.8381 39.2911L11.3028 39.2611L11.2728 37.6804L11.2428 36.1097H23.8081H36.3634V37.7104ZM38.2642 41.9122C38.2642 42.6125 38.2142 43.1327 38.1241 43.3428C37.9541 43.773 37.3438 44.2932 36.9436 44.3632C36.7636 44.3932 30.761 44.4032 23.598 44.3932L10.5925 44.3632L10.1823 44.0931C9.58205 43.6929 9.41197 43.2628 9.37196 41.9322L9.33194 40.8117H23.7981H38.2642V41.9122Z"
                                    fill="#52C3D2" />
                                <path
                                    d="M39.3145 21.2543L39.0645 21.4944V25.8058V30.1173L39.3145 30.3573C39.5346 30.5874 39.6246 30.6074 40.585 30.6074C41.4553 30.6074 41.6953 30.5674 42.1155 30.3673C42.6957 30.0973 42.9958 29.7971 43.2158 29.287C43.3359 28.9769 43.3659 28.3867 43.3659 25.7858C43.3659 22.8248 43.3559 22.6447 43.1558 22.2346C42.9057 21.7244 42.3956 21.2743 41.8754 21.1142C41.6653 21.0542 41.0551 21.0042 40.5249 21.0042C39.6246 21.0042 39.5346 21.0242 39.3145 21.2543ZM41.6053 22.7148L41.8654 22.9148V25.7958C41.8654 28.5567 41.8554 28.6868 41.6653 28.8568C41.5453 28.9669 41.2952 29.0469 41.0351 29.0469L40.615 29.0569L40.585 25.7758L40.565 22.5047H40.9551C41.1952 22.5047 41.4352 22.5847 41.6053 22.7148Z"
                                    fill="#52C3D2" />
                            </svg>