<svg width="49" height="48" viewBox="0 0 49 48" fill="none" xmlns="http://www.w3.org/2000/svg">
                                <path d="M5.67188 14.8867V23.0078L5.43984 23.0594C4.62344 23.2484 3.575 24.125 3.15391 24.95C2.77578 25.7062 2.75 26.0414 2.75 30.4414V34.6094H4.21094H5.67188V38.3047V42H24.75H43.8281V38.3047V34.6094H45.2891H46.75V30.4414C46.75 26.0414 46.7242 25.7062 46.3461 24.95C45.925 24.125 44.8766 23.2484 44.0688 23.0594L43.8281 23.0078V14.8867V6.76562H41.6367H39.4453V7.49609V8.22656H24.75H10.0547V7.49609V6.76562H7.86328H5.67188V14.8867ZM8.59375 15.5742V22.9219H7.86328H7.13281V15.5742V8.22656H7.86328H8.59375V15.5742ZM42.3672 15.5742V22.9219H41.6367H40.9062V15.5742V8.22656H41.6367H42.3672V15.5742ZM39.4281 16.3219L39.4453 22.9219H38.7234H37.993L37.9672 20.1031C37.9414 17.6023 37.9156 17.25 37.7781 16.9234C37.5805 16.4766 36.8758 15.8234 36.4547 15.7031C36.257 15.6516 34.2031 15.6172 30.9289 15.6172H25.7211L25.2313 15.8578L24.75 16.107L24.2688 15.8578L23.7789 15.6172H18.5711C15.2969 15.6172 13.243 15.6516 13.0453 15.7031C12.6242 15.8234 11.9195 16.4766 11.7219 16.9234C11.5844 17.25 11.5586 17.6023 11.5328 20.1031L11.507 22.9219H10.7766H10.0547V16.3648C10.0547 12.7555 10.0805 9.77344 10.1148 9.74765C10.1406 9.71328 16.7492 9.69609 24.7844 9.70469L39.4023 9.73047L39.4281 16.3219ZM23.7531 17.2586L23.9766 17.4305V20.1805V22.9219L18.5023 22.9047L13.0195 22.8789V20.1977V17.525L13.2258 17.3016L13.432 17.0781H18.4766C23.4523 17.0781 23.5297 17.0781 23.7531 17.2586ZM36.2742 17.3016L36.4805 17.525V20.1977V22.8789L31.0063 22.9047L25.5234 22.9219V20.1805V17.4305L25.7469 17.2586C25.9703 17.0781 26.0477 17.0781 31.0234 17.0781H36.068L36.2742 17.3016ZM44 24.5891C44.4984 24.8469 44.9367 25.3367 45.1172 25.818C45.2805 26.2477 45.2891 26.4969 45.2891 29.7109V33.1484H24.75H4.21094V29.7109C4.21094 26.4969 4.21953 26.2477 4.38281 25.818C4.61484 25.1906 5.18203 24.6664 5.83516 24.4602C5.95547 24.4258 14.532 24.4 24.8789 24.4086C43.0461 24.4258 43.7078 24.4344 44 24.5891ZM42.35 37.5914L42.3672 40.5391H24.75H7.13281V37.6344C7.13281 36.0359 7.15859 34.6953 7.19297 34.6695C7.21875 34.6352 15.1422 34.618 24.7844 34.6266L42.3242 34.6523L42.35 37.5914Z" fill="#52C3D2"/>
                                <path d="M4.98438 30.2695V31H5.71484H6.44531V30.2695V29.5391H5.71484H4.98438V30.2695Z" fill="#52C3D2"/>
                                <path d="M7.90625 30.2695V31H8.63672H9.36719V30.2695V29.5391H8.63672H7.90625V30.2695Z" fill="#52C3D2"/>
                                <path d="M10.8281 30.2695V31H11.5586H12.2891V30.2695V29.5391H11.5586H10.8281V30.2695Z" fill="#52C3D2"/>
                                <path d="M13.75 30.2695V31H14.4805H15.2109V30.2695V29.5391H14.4805H13.75V30.2695Z" fill="#52C3D2"/>
                                <path d="M16.6719 30.2695V31H17.4023H18.1328V30.2695V29.5391H17.4023H16.6719V30.2695Z" fill="#52C3D2"/>
                                <path d="M19.5938 30.2695V31H20.3242H21.0547V30.2695V29.5391H20.3242H19.5938V30.2695Z" fill="#52C3D2"/>
                                <path d="M22.5326 30.2439L22.5584 30.9572L23.2717 30.983L23.9764 31.0088V30.2697V29.5393H23.2459H22.5068L22.5326 30.2439Z" fill="#52C3D2"/>
                                <path d="M25.5234 30.2697V31.0088L26.2367 30.983L26.9414 30.9572L26.9672 30.2439L26.993 29.5393H26.2539H25.5234V30.2697Z" fill="#52C3D2"/>
                                <path d="M28.4453 30.2695V31H29.1758H29.9062V30.2695V29.5391H29.1758H28.4453V30.2695Z" fill="#52C3D2"/>
                                <path d="M31.3672 30.2695V31H32.0977H32.8281V30.2695V29.5391H32.0977H31.3672V30.2695Z" fill="#52C3D2"/>
                                <path d="M34.2891 30.2695V31H35.0195H35.75V30.2695V29.5391H35.0195H34.2891V30.2695Z" fill="#52C3D2"/>
                                <path d="M37.2109 30.2695V31H37.9414H38.6719V30.2695V29.5391H37.9414H37.2109V30.2695Z" fill="#52C3D2"/>
                                <path d="M40.1328 30.2695V31H40.8633H41.5938V30.2695V29.5391H40.8633H40.1328V30.2695Z" fill="#52C3D2"/>
                                <path d="M43.0547 30.2695V31H43.7852H44.5156V30.2695V29.5391H43.7852H43.0547V30.2695Z" fill="#52C3D2"/>
                                </svg>