<svg width="49" height="48" viewBox="0 0 49 48" fill="none"
                                xmlns="http://www.w3.org/2000/svg">
                                <path
                                    d="M36.5637 3.07244C36.4356 3.19139 36.335 3.3744 36.335 3.4842C36.335 3.58485 36.4356 3.77701 36.5637 3.89596C36.7376 4.07896 36.8748 4.12471 37.2317 4.12471C38.5127 4.12471 40.3611 4.64628 41.5597 5.35084C44.1858 6.89723 45.8786 9.63314 46.0982 12.671C46.144 13.3664 46.1897 13.5311 46.3636 13.705C46.6381 13.9795 46.9035 13.9703 47.178 13.6867C47.4433 13.4305 47.4708 13.0187 47.3061 11.8475C46.6656 7.25409 42.9963 3.58485 38.4029 2.94434C37.2317 2.77963 36.8199 2.80708 36.5637 3.07244Z"
                                    fill="#52C3D2" />
                                <path
                                    d="M36.5267 6.19263C36.2888 6.49459 36.2888 6.69589 36.4993 6.96125C36.6365 7.12595 36.8013 7.18085 37.4143 7.23576C39.0339 7.40046 40.1319 7.91287 41.23 9.02005C42.3371 10.1181 42.8495 11.2161 43.0142 12.8357C43.0691 13.4487 43.124 13.6135 43.2887 13.7507C43.5541 13.9612 43.7554 13.9612 44.0574 13.7233C44.2678 13.5586 44.2953 13.467 44.2953 12.9912C44.2953 11.8292 43.8286 10.3194 43.1423 9.27625C42.694 8.59914 41.6509 7.55601 40.9829 7.1168C39.9123 6.41224 38.4391 5.95473 37.2588 5.95473C36.783 5.95473 36.6914 5.98218 36.5267 6.19263Z"
                                    fill="#52C3D2" />
                                <path
                                    d="M3.82384 6.73254C3.28397 6.93385 2.81731 7.35476 2.51536 7.89462C2.2866 8.31553 2.25 8.47108 2.25 9.06585C2.25915 9.88937 2.44215 10.3011 3.05522 10.8684C3.53103 11.3076 4.17154 11.5364 4.94016 11.5364C5.63558 11.5456 6.15714 11.7926 6.46825 12.2684C6.7153 12.6436 6.7336 12.7442 8.06953 24.6487C8.8107 31.2551 9.47867 36.974 9.55187 37.3675C9.93618 39.2798 11.2721 41.0092 13.0472 41.8785C14.0446 42.3635 14.7034 42.5465 15.8106 42.6197L16.6524 42.6746L16.3688 42.9948C15.8655 43.5804 15.7008 44.0563 15.7008 44.9804C15.7008 45.7399 15.7191 45.8497 16.0119 46.3804C16.5975 47.4601 17.5034 48 18.7204 48C19.9374 48 20.8432 47.4601 21.4288 46.3804C21.7217 45.8405 21.74 45.749 21.74 44.9804C21.7308 44.0563 21.5661 43.5621 21.0537 42.9765L20.7609 42.6471H26.736H32.7111L32.5098 42.8393C31.6588 43.6262 31.4026 45.0902 31.9058 46.2157C32.1895 46.8562 32.8392 47.5059 33.4797 47.7987C33.8091 47.9451 34.0927 47.9908 34.6875 48C35.3555 48 35.5385 47.9634 35.9868 47.7438C36.2979 47.5882 36.6914 47.2863 36.9659 46.9935C37.9541 45.9046 38.0273 44.4223 37.1581 43.1778L36.792 42.6563L39.3358 42.6288C41.6783 42.6014 41.8979 42.5831 42.2822 42.4092C44.1305 41.5583 44.2403 39.0328 42.4835 37.9988L42.0534 37.7518L28.7856 37.706C16.3779 37.6603 15.4995 37.6511 15.225 37.5047C14.859 37.2943 14.4838 36.8184 14.4106 36.4433L14.3557 36.1505H25.2445C35.8953 36.1505 36.1424 36.1505 36.728 35.9675C37.7345 35.6564 38.5214 34.8054 38.8417 33.6799C38.9149 33.4054 39.6469 30.1479 40.4613 26.4513C41.9894 19.5245 42.09 18.9389 41.8247 18.2618C41.6508 17.8043 41.2574 17.301 40.8639 17.0265C40.2051 16.5782 39.6835 16.4775 37.8535 16.4775L36.1973 16.4684L35.7032 15.654C32.83 10.9416 27.0105 8.95604 21.8772 10.9416C20.404 11.509 19.2694 12.2318 18.089 13.3573C17.3204 14.0985 16.506 15.1324 16.0211 15.9651L15.7374 16.4775H13.9074C12.3793 16.4775 12.0865 16.4592 12.0865 16.3403C12.0865 15.8919 11.6015 12.0305 11.4917 11.5822C10.9427 9.4044 9.29566 7.65671 7.09961 6.90639C6.19374 6.60444 4.40945 6.50378 3.82384 6.73254ZM6.31269 8.01357C8.06953 8.43448 9.63422 9.88937 10.1649 11.6096C10.293 12.0122 10.7505 15.8187 11.7205 24.4016C12.8002 33.9727 13.1388 36.7269 13.2852 37.1112C13.5231 37.7426 14.127 38.374 14.8132 38.6942L15.3348 38.9413L28.566 38.987C41.6417 39.0328 41.8064 39.0328 42.0077 39.2158C42.6848 39.8289 42.5841 40.8445 41.7972 41.2197C41.4953 41.3569 40.507 41.3661 28.2641 41.3478L15.0603 41.3203L14.4655 41.119C12.6446 40.4968 11.2721 39.0236 10.8512 37.2485C10.7688 36.9191 10.0917 31.2185 9.35056 24.5663C7.84993 11.2527 7.96888 11.9665 7.20941 11.1887C6.61465 10.5756 6.06564 10.3377 5.08657 10.2554C4.15324 10.1913 3.86044 10.0449 3.63168 9.56911C3.34803 8.98349 3.52188 8.37958 4.06174 8.05932C4.42775 7.83057 5.45257 7.81227 6.31269 8.01357ZM22.7282 12.1952C22.353 12.5978 21.7766 13.4671 21.4288 14.1717C21.1726 14.6749 21.1086 14.739 20.9347 14.6932C19.9465 14.4096 19.2236 14.1534 19.2236 14.0893C19.2236 13.9612 20.221 13.2017 20.8615 12.8449C21.4654 12.4972 22.7739 11.9024 22.9203 11.9024C22.9752 11.9024 22.8837 12.0397 22.7282 12.1952ZM25.336 13.5677L25.3085 15.2422L24.668 15.2148C23.9177 15.1782 22.6001 15.0318 22.536 14.9769C22.4354 14.8762 23.2589 13.5403 23.7438 13.0187C24.2197 12.5155 25.0615 11.9024 25.2902 11.9024C25.3268 11.9024 25.3451 12.6527 25.336 13.5677ZM27.5686 12.4057C27.8065 12.5795 28.1908 12.9638 28.4196 13.2475C28.8863 13.8423 29.5268 15.0135 29.3895 15.0135C29.3438 15.0135 28.9961 15.0501 28.6301 15.0958C28.2641 15.1416 27.6601 15.2056 27.3033 15.2331L26.6353 15.2788V13.5952V11.9116L26.8915 12.0031C27.0288 12.0488 27.3307 12.2318 27.5686 12.4057ZM30.8993 12.7351C31.6039 13.1468 32.766 13.9795 32.766 14.0893C32.766 14.1442 31.6954 14.5011 30.9359 14.7024C30.8444 14.7207 30.6797 14.5102 30.4327 14.0253C30.1307 13.4488 29.6366 12.7076 29.0784 12.0122C28.932 11.8292 30.1673 12.3233 30.8993 12.7351ZM18.9491 15.3978C19.3243 15.535 19.8733 15.718 20.1661 15.8004C20.6511 15.9285 20.6968 15.9651 20.6419 16.139C20.3034 17.3193 19.9557 19.369 19.9557 20.2383C19.9557 21.0069 20.0929 20.9611 17.842 20.9611C15.5361 20.9611 15.7466 21.0892 15.9753 19.8539C16.1675 18.8291 16.4969 17.85 16.9452 16.9808C17.3387 16.1939 18.1073 15.0775 18.208 15.1233C18.2354 15.1416 18.574 15.2605 18.9491 15.3978ZM34.1934 15.6723C35.1816 17.0174 36.06 19.3507 36.06 20.6409V20.9611H34.0653H32.0705L31.9516 19.7441C31.8509 18.6919 31.5673 17.0906 31.3202 16.2488L31.247 15.9834L32.4823 15.5533C33.1686 15.3246 33.7359 15.1233 33.7542 15.1141C33.7633 15.1141 33.9646 15.3612 34.1934 15.6723ZM23.4785 16.3952C24.0824 16.4501 24.7504 16.5141 24.97 16.5324L25.3543 16.5782V18.7742V20.9611H23.2497H21.1452L21.1818 20.7507C21.2092 20.6409 21.2458 20.2108 21.2824 19.7899C21.3465 18.8749 21.5478 17.7585 21.804 16.8618C21.9779 16.2671 22.0236 16.1939 22.1883 16.2396C22.2981 16.2671 22.8746 16.3403 23.4785 16.3952ZM29.966 16.2762C30.1673 16.6056 30.6065 18.9115 30.7072 20.1559L30.7712 20.9611H28.7033H26.6353V18.7742V16.5873L26.919 16.5324C27.0745 16.505 27.4405 16.4775 27.7242 16.4684C28.1176 16.4684 29.2523 16.3311 29.8562 16.2122C29.8928 16.2122 29.9385 16.2396 29.966 16.2762ZM15.1518 17.9141C14.8407 18.6919 14.6302 19.918 14.5845 21.2082L14.5296 22.6082H13.6786H12.8276L12.7819 22.3062C12.7361 22.0591 12.2695 17.9141 12.2695 17.7951C12.2695 17.7768 12.9283 17.7585 13.7427 17.7585C15.106 17.7585 15.2158 17.7677 15.1518 17.9141ZM39.9031 17.9599C40.2142 18.1246 40.3698 18.2801 40.5345 18.6187L40.7541 19.0579L40.507 20.22C40.3698 20.8513 40.1959 21.6474 40.1136 21.9951L39.9763 22.6173L38.6861 22.5899L37.3868 22.5624L37.4143 22.0774C37.46 21.3363 37.2679 19.6892 37.0208 18.701C36.8927 18.2069 36.792 17.7951 36.792 17.786C36.792 17.7677 37.4051 17.7585 38.1463 17.7585C39.3633 17.7585 39.5371 17.7768 39.9031 17.9599ZM19.9008 22.4435C19.9282 22.5624 19.9648 23.0016 19.9923 23.4317C20.0563 24.4291 20.2851 25.7558 20.5413 26.6526L20.7517 27.3571L20.1021 27.5493C19.5347 27.714 18.8942 27.9427 18.391 28.144C18.1439 28.2355 17.2106 26.863 16.6341 25.5545C16.3413 24.914 15.9845 23.5598 15.8838 22.7637L15.8289 22.2422H17.842H19.8642L19.9008 22.4435ZM25.3543 24.5114V26.7898L24.3935 26.8447C23.8628 26.8813 23.1399 26.9545 22.7831 27.0094C22.3896 27.0735 22.0968 27.0735 22.0511 27.0277C21.8132 26.7898 21.3556 24.4657 21.2092 22.6722L21.1635 22.2422H23.2589H25.3543V24.5114ZM30.7163 22.9925C30.6065 24.3375 30.1581 26.6343 29.9385 26.982C29.8745 27.0826 29.7372 27.0918 29.2065 27.0094C28.8497 26.9545 28.1268 26.8813 27.5961 26.8447L26.6353 26.7898V24.5114V22.2422H28.7033H30.7804L30.7163 22.9925ZM36.0234 22.8735C35.8953 24.2826 34.9895 26.5336 34.1019 27.6499L33.6993 28.1715L32.6562 27.8146C32.0888 27.6225 31.549 27.4578 31.4666 27.4578C31.2104 27.4578 31.1921 27.3022 31.3843 26.6526C31.6222 25.8565 31.9058 24.182 31.9973 23.084L32.0614 22.2422H34.0744H36.0875L36.0234 22.8735ZM14.7766 23.999C14.7949 24.063 14.923 24.484 15.0603 24.9415C15.3623 25.9388 15.8747 27.046 16.4328 27.8695C16.6616 28.2081 16.8446 28.5009 16.8446 28.5192C16.8446 28.5375 16.0851 28.5558 15.1518 28.5558C13.8616 28.5558 13.459 28.5283 13.459 28.4368C13.459 28.3819 13.3584 27.4395 13.2303 26.3597C13.1022 25.28 13.0015 24.2826 13.0015 24.1362V23.8892H13.8708C14.493 23.8892 14.7583 23.9258 14.7766 23.999ZM39.4914 24.8225C39.3816 25.3441 39.1528 26.3963 38.9881 27.1558L38.677 28.5558H36.8652H35.0535L35.5751 27.7597C36.179 26.8356 36.6914 25.7009 36.9842 24.6395L37.1855 23.8892H38.4391H39.6927L39.4914 24.8225ZM25.3543 29.6996V31.3009L25.1072 31.2002C24.6314 31.0264 24.2654 30.7427 23.7347 30.1662C23.2314 29.6081 22.5086 28.4368 22.6184 28.3362C22.6824 28.263 24.0184 28.1257 24.7412 28.1074L25.3543 28.0983V29.6996ZM28.3922 28.1989C28.9137 28.2538 29.3438 28.3087 29.3621 28.327C29.4261 28.3819 28.9229 29.2787 28.5111 29.8094C28.0444 30.4316 27.6235 30.8068 27.0288 31.1087L26.6353 31.3009V29.6996V28.0983H27.0471C27.2667 28.0983 27.8797 28.144 28.3922 28.1989ZM22.1609 30.2669C22.3164 30.4956 22.5726 30.8159 22.719 30.9898L22.9935 31.2917L22.4811 31.1179C21.4746 30.7701 19.3151 29.4708 19.3151 29.2146C19.3151 29.1506 20.4498 28.7663 21.0994 28.6107C21.1543 28.5924 21.3465 28.8669 21.5386 29.2238C21.7217 29.5715 22.0053 30.0381 22.1609 30.2669ZM31.8692 28.8944C32.3084 29.0225 32.6745 29.1597 32.6745 29.1872C32.6745 29.3061 31.2196 30.3126 30.6157 30.6054C29.966 30.9257 29.0144 31.3192 29.0144 31.2734C29.0144 31.2551 29.234 30.9715 29.4993 30.6329C29.7647 30.2943 30.149 29.7179 30.3503 29.3336C30.6065 28.8486 30.7621 28.6473 30.881 28.6473C30.9817 28.6473 31.4209 28.7571 31.8692 28.8944ZM18.6563 30.3492C18.9949 30.6329 19.2968 30.8983 19.3334 30.9257C19.37 30.9623 19.489 31.7492 19.5897 32.6734C19.6903 33.6067 19.791 34.476 19.8184 34.6132L19.8642 34.8694H17.0276H14.2002L14.1453 34.476C14.0812 33.991 13.642 30.0381 13.642 29.9283C13.642 29.8734 14.5113 29.8368 15.8381 29.8368H18.0433L18.6563 30.3492ZM38.3476 29.9558C38.3476 30.029 38.1829 30.8434 37.9724 31.7675C37.4783 33.991 37.2221 34.4668 36.3437 34.7596C35.996 34.8786 32.2169 34.9152 32.2169 34.7962C32.2261 34.1923 32.7019 30.8708 32.7843 30.7885C32.8483 30.7244 33.1228 30.4865 33.3973 30.2577L33.9006 29.8368H36.1241C37.9175 29.8368 38.3476 29.8643 38.3476 29.9558ZM31.2562 32.0054C31.2196 32.2433 30.9359 34.7047 30.9359 34.8237C30.9359 34.8694 21.1543 34.8969 21.1452 34.842C21.0811 34.5492 20.8066 31.8865 20.8249 31.859C20.8432 31.8407 21.2092 31.978 21.6393 32.161C22.9478 32.7283 24.2471 32.9754 25.8575 32.9845C26.6353 32.9845 27.5229 32.9388 27.9163 32.8655C28.7033 32.7283 30.0392 32.3074 30.7072 31.9871C31.2928 31.7126 31.3019 31.7126 31.2562 32.0054ZM19.7452 43.5255C20.8798 44.4223 20.6785 46.0785 19.3883 46.6275C17.9243 47.2314 16.442 45.6941 17.1099 44.2484C17.4485 43.5164 18.0158 43.1778 18.8302 43.2144C19.2968 43.2419 19.4615 43.2968 19.7452 43.5255ZM35.4744 43.37C35.9319 43.5804 36.2796 44.0197 36.426 44.5504C36.545 45.0262 36.4809 45.3922 36.1881 45.9138C35.9136 46.3896 35.4744 46.6641 34.8797 46.7373C34.4953 46.783 34.3398 46.7464 33.9372 46.5543C32.9856 46.0876 32.6562 45.0536 33.1411 44.102C33.5437 43.3059 34.596 42.9765 35.4744 43.37Z"
                                    fill="#52C3D2" />
                                <path
                                    d="M36.7194 9.0654C36.4083 9.1935 36.2802 9.54121 36.4266 9.88892C36.5456 10.1726 36.573 10.1909 37.4515 10.3373C38.7233 10.5569 39.5926 11.4079 39.9037 12.7072C40.0684 13.43 40.471 13.6405 40.956 13.2562C41.1847 13.0732 41.203 13.0274 41.1573 12.5699C41.0109 11.1242 39.5835 9.54121 38.1194 9.1752C37.5155 9.01965 36.939 8.9739 36.7194 9.0654Z"
                                    fill="#52C3D2" />
                            </svg>