<svg width="49" height="48" viewBox="0 0 49 48" fill="none"
                                xmlns="http://www.w3.org/2000/svg">
                                <path
                                    d="M2.47494 4.47538L2.25 4.69133V12.8883V21.0853L2.47494 21.3012C2.69089 21.5262 2.70889 21.5262 4.40947 21.5262C6.73989 21.5262 6.56893 21.7151 6.56893 19.1418V17.2072H13.4072C19.5167 17.2072 20.2456 17.2252 20.2456 17.3422C20.2456 17.5761 20.6685 17.9271 20.9474 17.9271C21.1993 17.9271 21.2263 17.9721 21.8652 19.6007C22.2701 20.6174 22.603 21.3192 22.711 21.4002C22.8099 21.4722 23.1069 21.5262 23.3678 21.5262H23.8447V22.246V22.9658H24.5645H25.2843V22.246V21.5262H25.7612C26.0221 21.5262 26.3191 21.4722 26.418 21.4002C26.526 21.3192 26.8589 20.6174 27.2638 19.6007C27.9027 17.9721 27.9297 17.9271 28.1816 17.9271C28.4605 17.9271 28.8834 17.5761 28.8834 17.3422C28.8834 17.2252 29.6123 17.2072 35.7217 17.2072H42.5601V19.1418C42.5601 21.7151 42.3891 21.5262 44.7195 21.5262C46.4201 21.5262 46.4381 21.5262 46.654 21.3012L46.879 21.0853V12.8883V4.69133L46.654 4.47538L46.4381 4.25044H24.5645H2.69089L2.47494 4.47538ZM45.4394 7.12973V8.56937H24.5645H3.68965V7.12973V5.69008H24.5645H45.4394V7.12973ZM5.12929 15.0478V20.0865H4.40947H3.68965V15.0478V10.009H4.40947H5.12929V15.0478ZM42.5601 11.4487V12.8883H35.7217C29.6123 12.8883 28.8834 12.8703 28.8834 12.7533C28.8834 12.6724 28.7845 12.5104 28.6585 12.3934L28.4425 12.1685H24.5645H20.6865L20.4705 12.3934C20.3445 12.5104 20.2456 12.6724 20.2456 12.7533C20.2456 12.8703 19.5167 12.8883 13.4072 12.8883H6.56893V11.4487V10.009H24.5645H42.5601V11.4487ZM45.4394 15.0478V20.0865H44.7195H43.9997V15.0478V10.009H44.7195H45.4394V15.0478ZM27.4438 15.0478V16.4874H24.5645H21.6852V15.0478V13.6081H24.5645H27.4438V15.0478ZM20.2456 15.0478V15.7676H13.4072H6.56893V15.0478V14.328H13.4072H20.2456V15.0478ZM42.5601 15.0478V15.7676H35.7217H28.8834V15.0478V14.328H35.7217H42.5601V15.0478ZM26.3371 18.035C26.3101 18.098 26.1211 18.5839 25.9052 19.1148L25.5273 20.0865H24.5645H23.6017L23.2238 19.1148C23.0079 18.5839 22.8189 18.098 22.7919 18.035C22.7559 17.9541 23.1428 17.9271 24.5645 17.9271C25.9861 17.9271 26.3731 17.9541 26.3371 18.035Z"
                                    fill="#52C3D2" />
                                <path
                                    d="M13.9564 25.9796C12.3638 26.3306 10.8342 27.5183 10.0964 28.9939C9.72746 29.7317 9.45753 30.7125 9.44853 31.3063V31.6033H8.59374C7.80194 31.6033 7.71196 31.6212 7.51401 31.8282L7.28906 32.0441V37.3618V42.6795L7.51401 42.8955C7.72995 43.1204 7.75695 43.1204 9.31356 43.1204H10.8882V44.3351C10.8882 45.5138 10.8972 45.5678 11.1131 45.7748C11.3201 45.9907 11.3651 45.9997 12.6877 45.9997C14.4063 45.9997 14.3253 46.0627 14.7482 44.3531L15.0451 43.1204H24.5648H34.0845L34.3814 44.3531C34.8043 46.0627 34.7233 45.9997 36.4419 45.9997C37.7645 45.9997 37.8095 45.9907 38.0165 45.7748C38.2324 45.5678 38.2414 45.5138 38.2414 44.3351V43.1204H39.816C41.3727 43.1204 41.3997 43.1204 41.6156 42.8955L41.8405 42.6795V37.3618V32.0441L41.6156 31.8282C41.4176 31.6212 41.3277 31.6033 40.5629 31.6033H39.7171L39.6181 30.8564C39.4831 29.9027 39.2312 29.2368 38.6823 28.409C38.1065 27.5543 37.4136 26.9424 36.4959 26.4745C35.1912 25.8267 35.6771 25.8447 24.5198 25.8537C16.3588 25.8537 14.4243 25.8807 13.9564 25.9796ZM34.9572 27.4193C36.5588 27.8422 37.8455 29.1918 38.1515 30.7845C38.3134 31.6482 38.3584 31.6033 37.3866 31.6033C36.5948 31.6033 36.5049 31.6212 36.3069 31.8282L36.082 32.0441V34.7075V37.3618H24.5648H13.0476V34.7075V32.0441L12.8227 31.8282C12.6247 31.6212 12.5348 31.6033 11.743 31.6033H10.8882V31.3513C10.8882 31.2163 10.9512 30.8654 11.0231 30.5865C11.428 29.0479 12.6157 27.8332 14.1364 27.4283C14.8832 27.2213 34.1834 27.2213 34.9572 27.4193ZM11.608 37.3618V41.6808H10.1684H8.72871V37.3618V33.0429H10.1684H11.608V37.3618ZM40.4009 37.3618V41.6808H38.9613H37.5216V37.3618V33.0429H38.9613H40.4009V37.3618ZM36.082 40.2411V41.6808H24.5648H13.0476V40.2411V38.8015H24.5648H36.082V40.2411ZM13.3896 43.8402L13.2096 44.5601H12.7687H12.3278V43.8402V43.1204H12.9487H13.5695L13.3896 43.8402ZM36.8018 43.8402V44.5601H36.3609H35.92L35.74 43.8402L35.5601 43.1204H36.1809H36.8018V43.8402Z"
                                    fill="#52C3D2" />
                            </svg>