<svg width="49" height="48" viewBox="0 0 49 48" fill="none"
                                xmlns="http://www.w3.org/2000/svg">
                                <path
                                    d="M21.237 2.22344C21.0565 2.44687 21.0565 2.51562 21.0565 8.31641C21.0565 14.1172 21.0565 14.1859 21.237 14.4094L21.4089 14.6328H25.7057H29.994V20.6914V26.75H29.3495H28.705V26.4234C28.705 25.9164 28.3784 24.8766 28.0003 24.1719C27.5878 23.3898 27.0292 22.7195 26.3675 22.2125L25.8862 21.8344L26.1784 21.4391C27.0292 20.3305 27.3557 18.9125 27.0636 17.5547C26.9346 16.9359 26.7456 16.8328 25.6628 16.7984C24.6831 16.7641 23.8753 16.9102 23.1964 17.2539L22.7753 17.4602L22.3112 17.2109C21.3315 16.7039 19.7073 16.5492 18.8737 16.9016C18.4612 17.0734 18.3581 17.4773 18.4182 18.7148C18.4698 19.7891 18.6761 20.4937 19.1315 21.1727L19.4151 21.5938L19.1831 21.7398C18.212 22.35 17.2581 23.3641 16.8456 24.2234L16.6479 24.6187L16.4073 24.1633C16.0206 23.4586 15.4792 22.8055 14.8518 22.2898L14.2675 21.8172L14.4823 21.5594C15.23 20.6398 15.4964 19.8578 15.505 18.6289C15.5136 17.5891 15.3932 17.0992 15.1011 16.9359C14.9979 16.8844 14.5425 16.8242 14.087 16.7984C13.1417 16.7555 12.2136 16.9187 11.5604 17.2539L11.1565 17.4516L10.5636 17.168C9.17996 16.5062 7.0573 16.5836 6.86824 17.2969C6.75652 17.7094 6.7909 19.3164 6.9198 19.8148C7.0573 20.3305 7.49558 21.2844 7.65027 21.3789C7.82215 21.482 7.72761 21.6367 7.34949 21.8773C6.41277 22.4703 5.5534 23.4758 5.08074 24.5328C4.80574 25.143 4.55652 26.0625 4.55652 26.475V26.75H3.82605C2.6573 26.75 2.75183 26.4062 2.75183 30.7461C2.75183 35.0687 2.6659 34.7422 3.78308 34.7422H4.47058V36.375V38.0078H3.78308C2.6659 38.0078 2.75183 37.6812 2.75183 41.9867C2.75183 45.5273 2.76043 45.6305 2.92371 45.8109L3.10418 46H24.7432C45.6003 46 46.3909 45.9914 46.5198 45.8453C46.6487 45.6992 46.6659 45.3125 46.6659 41.9867C46.6659 37.6469 46.7604 38.0078 45.6518 38.0078H44.9471V36.375V34.7422H45.669C46.219 34.7422 46.4253 34.7078 46.5284 34.6047C46.6487 34.4844 46.6659 34.0203 46.6659 30.7547C46.6659 26.3891 46.7604 26.75 45.6604 26.75H44.9643L44.9042 26.2945C44.8096 25.6328 44.5432 24.8078 44.1909 24.1375C43.8643 23.5102 42.8159 22.3242 42.3261 22.0234L42.0339 21.843L42.3948 21.3961C43.1425 20.468 43.4862 19.2047 43.3143 17.9844C43.1682 16.9359 43.005 16.807 41.7159 16.7898C40.8307 16.7812 40.1432 16.9102 39.4643 17.2109L38.9229 17.4602L38.6479 17.2969C37.8229 16.807 36.6198 16.6094 35.5971 16.7812C34.7979 16.9102 34.669 17.0648 34.5917 17.9414C34.48 19.093 34.7721 20.3477 35.3307 21.1984C35.4768 21.4219 35.5886 21.6109 35.5714 21.6195C33.9128 22.625 32.787 24.1633 32.4776 25.8391C32.4261 26.1313 32.3659 26.4492 32.3487 26.5523C32.3143 26.7328 32.2628 26.75 31.7128 26.75H31.1112V20.6914V14.6328H35.3909C39.4386 14.6328 39.6878 14.6242 39.8167 14.4781C39.9542 14.332 39.9628 13.782 39.9628 8.29062V2.26641L39.7737 2.1375C39.6018 2.01719 38.5792 2 30.5011 2H21.4089L21.237 2.22344ZM38.9315 8.31641V13.5156H30.5526H22.1737V8.31641V3.11719H30.5526H38.9315V8.31641ZM9.54949 17.95C10.1596 18.1305 10.744 18.5086 11.2167 19.0328C11.6378 19.4969 12.1534 20.3648 12.2479 20.7516L12.3081 20.9922L11.8956 20.9234C11.2339 20.8289 10.1596 20.8547 9.46355 20.9836L8.82761 21.1125L8.62136 20.8547C8.11433 20.2531 7.71902 18.8438 7.85652 18.1133L7.91668 17.8125H8.50105C8.81902 17.8125 9.29168 17.8727 9.54949 17.95ZM21.6925 18.1477C22.4315 18.5086 23.162 19.2992 23.6261 20.2273C23.8237 20.6141 23.9698 20.9492 23.9526 20.9664C23.9268 20.9836 23.6261 20.9492 23.2823 20.8977C22.6034 20.7945 21.8386 20.8289 20.9792 21.0008C20.4464 21.1125 20.4378 21.1125 20.2659 20.9062C20.18 20.7859 19.9737 20.4422 19.8276 20.1328C19.6042 19.6773 19.5526 19.4453 19.5268 18.8266C19.4753 17.7523 19.4495 17.7781 20.369 17.8297C21.0136 17.8727 21.2456 17.9242 21.6925 18.1477ZM37.8487 18.1391C38.6479 18.5086 39.2925 19.1875 39.7823 20.1586C39.9971 20.5711 40.1432 20.9234 40.1261 20.9492C40.1003 20.9664 39.8339 20.9492 39.5245 20.8977C38.8886 20.7859 37.8057 20.8461 37.144 21.018L36.6971 21.1383L36.4307 20.8375C36.1128 20.4852 35.8979 20.0039 35.7604 19.3766C35.6487 18.8609 35.6315 17.9586 35.7346 17.8641C35.769 17.8211 36.1214 17.8125 36.5253 17.8297C37.1268 17.8555 37.3675 17.9156 37.8487 18.1391ZM14.4221 18.6891C14.3792 19.5656 14.1042 20.3648 13.7003 20.743L13.4854 20.9406L13.4339 20.743C13.3307 20.3562 12.6604 19.0586 12.3425 18.6461C12.0932 18.3195 12.0589 18.225 12.162 18.1906C12.6862 17.9844 13.1159 17.907 13.7432 17.907L14.4565 17.8984L14.4221 18.6891ZM26.0409 18.5687C26.0409 19.3937 25.8948 19.918 25.4737 20.5453L25.1643 21.018L24.9323 20.4164C24.6487 19.6945 24.2104 18.9211 23.8667 18.5344C23.6604 18.2937 23.6432 18.2336 23.755 18.1906C24.2878 17.9844 24.7175 17.907 25.3362 17.907L26.0409 17.8984V18.5687ZM42.2487 18.1992C42.3175 18.5859 42.2229 19.3852 42.0425 19.832C41.8964 20.2102 41.4495 20.9062 41.355 20.9062C41.3206 20.9062 41.1831 20.6141 41.0542 20.2531C40.9167 19.8922 40.5987 19.2906 40.3409 18.9211C39.9112 18.2937 39.894 18.2422 40.0487 18.1562C40.3323 18.0016 40.8479 17.9156 41.5268 17.907L42.1886 17.8984L42.2487 18.1992ZM11.9643 22.0578C13.4339 22.3758 14.7917 23.4242 15.4792 24.7906C15.7542 25.332 15.9862 26.1313 15.9862 26.5094V26.75H10.83H5.67371V26.4664C5.67371 25.8047 6.17215 24.6187 6.76511 23.8625C7.41824 23.0461 8.62996 22.2898 9.66121 22.0664C10.3573 21.9117 11.2596 21.9117 11.9643 22.0578ZM23.5831 22.0664C24.812 22.3242 26.0323 23.1406 26.737 24.1805C27.244 24.9281 27.3729 25.2805 27.6393 26.5523L27.6737 26.75H22.4745H17.2753V26.5523C17.2753 26.4492 17.3354 26.1227 17.4042 25.8477C18.1089 23.132 20.8073 21.482 23.5831 22.0664ZM39.9112 22.1094C40.8136 22.3414 41.5182 22.7281 42.2229 23.3898C43.0737 24.1977 43.6495 25.2805 43.8042 26.3633L43.8557 26.75H38.6393H33.4229L33.4745 26.4234C33.5862 25.7961 33.7925 25.1516 34.0589 24.6445C34.4198 23.9656 35.4682 22.9172 36.1557 22.5562C37.2987 21.9547 38.6737 21.7914 39.9112 22.1094ZM45.6346 30.7461V33.625H24.7518H3.86902V30.7461V27.8672H24.7518H45.6346V30.7461ZM43.83 36.375V38.0078H24.7089H5.58777V36.375V34.7422H24.7089H43.83V36.375ZM45.6346 42.0039V44.8828H24.7518H3.86902V42.0039V39.125H24.7518H45.6346V42.0039Z"
                                    fill="#52C3D2" />
                                <path
                                    d="M25.8429 6.53733C25.6538 6.74358 25.6538 7.09592 25.8515 7.27639C25.9976 7.40529 26.4273 7.41389 30.6038 7.3967L35.1843 7.37092L35.3218 7.13029C35.4335 6.92404 35.4335 6.87248 35.3218 6.65764L35.1843 6.42561L30.5866 6.39983C26.2124 6.38264 25.9718 6.39123 25.8429 6.53733Z"
                                    fill="#52C3D2" />
                                <path
                                    d="M25.8343 9.40764C25.6538 9.66545 25.6624 9.93186 25.8514 10.1123C25.9975 10.2412 26.4272 10.2498 30.6038 10.2326L35.1842 10.2069L35.3217 9.96623C35.4335 9.75998 35.4335 9.70842 35.3217 9.49358L35.1842 9.26155L30.578 9.23576L25.9632 9.21858L25.8343 9.40764Z"
                                    fill="#52C3D2" />
                            </svg>