 <svg width="49" height="48" viewBox="0 0 49 48" fill="none"
                                xmlns="http://www.w3.org/2000/svg">
                                <path
                                    d="M15.2669 4.92249C14.9088 5.09698 14.8628 5.37248 14.8628 7.46628V9.46826L14.1557 9.75294C13.7608 9.89987 13.219 10.1203 12.9527 10.2397L12.4752 10.4509L11.0242 9.01827C10.1793 8.1734 9.4814 7.55812 9.34365 7.52139C8.95795 7.42037 8.67326 7.64077 7.13046 9.19275C5.56011 10.7723 5.36726 11.0386 5.50501 11.4151C5.56011 11.5437 6.23968 12.2967 7.02026 13.0865L8.45286 14.5191L8.14981 15.1068C7.9937 15.4283 7.76411 15.9609 7.65391 16.2915L7.45188 16.8884L5.33052 16.9343C2.92448 16.9894 2.88775 16.9986 2.78673 17.6874C2.75 17.9078 2.74082 19.0006 2.75918 20.1209C2.78673 22.1046 2.79592 22.1688 2.99795 22.3709C3.19998 22.5729 3.27345 22.5821 5.33052 22.628L7.45188 22.6739L7.74575 23.4545C7.90186 23.8861 8.13145 24.4188 8.24165 24.6392L8.45286 25.0432L6.95598 26.5401C5.61521 27.8809 5.46827 28.0646 5.47746 28.3309C5.48664 28.5972 5.68867 28.836 7.16719 30.3145C8.69163 31.8297 8.88448 31.995 9.16917 31.995C9.44467 31.995 9.62833 31.8389 10.9599 30.5257L12.4476 29.0472L13.1547 29.3686C13.5404 29.5431 14.0823 29.7635 14.3578 29.8461L14.8628 30.0114V32.0869C14.8628 34.0613 14.872 34.1899 15.0557 34.4194L15.2394 34.6582H17.7005C20.0882 34.6582 20.1616 34.649 20.3361 34.4654C20.4922 34.2909 20.5106 34.0705 20.5565 32.1511L20.6024 30.0206L21.383 29.7451C21.8146 29.589 22.3473 29.3594 22.5677 29.2492L22.9718 29.038L24.4503 30.5165C25.8002 31.8481 25.9747 31.995 26.2594 31.995C26.5441 31.995 26.7186 31.8481 28.2338 30.3145C29.1521 29.3961 29.9236 28.5696 29.9603 28.4778C30.0705 28.1472 29.7399 27.7064 28.3807 26.3564L26.9941 24.9881L27.2787 24.4279C27.4349 24.1157 27.6553 23.6014 27.7655 23.2708L27.9675 22.6739L30.0889 22.628C32.1459 22.5821 32.2194 22.5729 32.4214 22.3709C32.6235 22.1688 32.6326 22.1137 32.6602 20.0291C32.6877 17.6965 32.6602 17.3751 32.3939 17.1088C32.2286 16.9435 32.0725 16.9343 30.1164 16.9343H28.0134L27.8481 16.4935C27.7655 16.2548 27.5359 15.7129 27.343 15.2813L26.9849 14.5007L28.445 13.0314C29.244 12.2233 29.9236 11.4886 29.9511 11.3968C30.0705 11.0753 29.7858 10.6988 28.3348 9.23867C26.8839 7.77852 26.5165 7.47547 26.1951 7.47547C26.1033 7.47547 25.3594 8.14585 24.5329 8.96317C23.1646 10.3315 23.0177 10.4417 22.8156 10.359C22.6963 10.3131 22.1361 10.0927 21.5759 9.86314L20.5565 9.45907V7.38363C20.5473 5.21636 20.5382 5.13371 20.1249 4.92249C19.8678 4.78474 15.5516 4.78474 15.2669 4.92249ZM19.179 8.29279C19.179 10.0744 19.1974 10.3223 19.3443 10.4876C19.4362 10.5978 19.8494 10.7815 20.3269 10.9192C20.7861 11.057 21.5391 11.3692 22.0167 11.6172C22.4942 11.8651 22.9901 12.0671 23.1187 12.0671C23.3024 12.0671 23.6789 11.7457 24.7992 10.6254L26.2502 9.17439L27.2604 10.1846L28.2705 11.1855L26.8471 12.6181C25.6441 13.8304 25.4237 14.0967 25.4237 14.3263C25.4237 14.4824 25.6441 15.0426 25.9104 15.566C26.1859 16.0986 26.489 16.8609 26.5992 17.2649C26.893 18.3486 26.8012 18.3118 29.1981 18.3118H31.2092V19.7261V21.1495L29.1981 21.177C27.3889 21.2046 27.1685 21.223 26.9941 21.3791C26.893 21.4709 26.691 21.9393 26.5349 22.4352C26.3788 22.9219 26.0665 23.6841 25.837 24.1249C25.6074 24.5657 25.4237 25.0432 25.4237 25.181C25.4237 25.3738 25.7176 25.7136 26.8471 26.8524L28.2705 28.2758L27.2604 29.2859L26.2502 30.2869L24.8543 28.9002C24.0829 28.138 23.3575 27.486 23.2473 27.4585C23.0911 27.4125 22.733 27.5411 21.9157 27.9452C21.2912 28.2482 20.5198 28.5605 20.1892 28.6523C19.1515 28.9278 19.1882 28.8451 19.1607 31.2053L19.1331 33.2348L17.7372 33.2623L16.3322 33.2899V31.4165C16.3322 30.342 16.2863 29.4237 16.2404 29.2676C16.121 28.9462 15.974 28.8543 15.0557 28.588C14.6792 28.487 13.9353 28.1656 13.4027 27.8901C12.6772 27.5227 12.3742 27.4125 12.1997 27.4493C12.0711 27.486 11.3364 28.138 10.565 28.9002L9.16917 30.2869L8.159 29.2859L7.14883 28.2758L8.59061 26.834C9.79363 25.631 10.0232 25.3555 10.014 25.1351C10.014 24.9973 9.80282 24.483 9.54568 24.0055C9.29773 23.528 8.9855 22.7841 8.85693 22.3525C8.72836 21.9209 8.59061 21.526 8.5447 21.4709C8.37021 21.2046 8.03043 21.1587 6.14784 21.1587H4.21015V19.7352V18.3118H6.21213C7.83758 18.3118 8.25083 18.2843 8.40695 18.1741C8.53551 18.0822 8.70082 17.7333 8.89367 17.0904C9.04978 16.5762 9.36202 15.814 9.5916 15.4007C10.2161 14.2344 10.2436 14.2987 8.57225 12.6181L7.14883 11.1855L8.159 10.1846L9.16917 9.17439L10.6201 10.6254C11.7497 11.7549 12.117 12.0671 12.3099 12.0671C12.4384 12.0671 12.9435 11.8651 13.4211 11.6172C13.8986 11.3692 14.6516 11.0478 15.1016 10.9192C16.3414 10.5427 16.2771 10.6805 16.3138 8.30197L16.3414 6.28163H17.7648H19.179V8.29279Z"
                                    fill="#52C3D2" />
                                <path
                                    d="M16.1026 12.1132C13.6782 12.6367 11.7038 14.2254 10.6477 16.4937C10.0692 17.7243 9.95898 18.2569 9.95898 19.7813C9.96817 20.9568 9.99572 21.2048 10.2161 21.9394C11.8324 27.2841 18.2883 29.3228 22.6045 25.8424C23.8167 24.8689 24.8911 23.2343 25.286 21.7558C25.5248 20.865 25.5707 19.2303 25.387 18.312C24.7442 15.1529 22.4116 12.7744 19.3076 12.1132C18.5362 11.9479 16.8465 11.9479 16.1026 12.1132ZM19.3627 13.5826C21.4565 14.1428 23.2106 15.8692 23.8442 17.9906C24.1289 18.9273 24.1565 20.4334 23.9177 21.3425C23.1555 24.1894 20.6484 26.1179 17.7097 26.1179C13.3109 26.1179 10.2437 21.8017 11.6946 17.6416C12.0069 16.7233 12.4293 16.0713 13.2099 15.2723C14.1558 14.3081 15.3312 13.6836 16.6537 13.4448C17.2598 13.3346 18.7291 13.4081 19.3627 13.5826Z"
                                    fill="#52C3D2" />
                                <path
                                    d="M16.3779 14.2345C14.6422 14.657 13.1178 15.9886 12.4474 17.6691C10.9873 21.3516 13.6688 25.3739 17.6177 25.4107C18.6921 25.4199 19.2798 25.2913 20.2808 24.8046C21.3553 24.2811 22.2185 23.4179 22.7511 22.3434C23.596 20.6262 23.6052 18.8905 22.7879 17.2191C22.3563 16.3467 21.2543 15.1988 20.4002 14.7488C19.2339 14.1335 17.6452 13.9315 16.3779 14.2345ZM18.9125 15.6947C19.8584 15.961 20.8686 16.7324 21.3461 17.5405C21.9155 18.514 22.0991 19.9099 21.7961 20.9476C21.1441 23.1332 18.8482 24.4372 16.6534 23.8679C14.78 23.372 13.4851 21.7098 13.4851 19.7813C13.4851 16.9161 16.1483 14.9141 18.9125 15.6947Z"
                                    fill="#52C3D2" />
                                <path
                                    d="M33.5877 24.9793L33.3673 25.2181L33.3397 28.1935L33.3122 31.1689H31.3929H29.4735L29.2899 31.4076C29.1062 31.6464 29.097 31.7566 29.097 34.5759V37.5054H17.7372C10.9691 37.5054 6.14782 37.5421 5.83559 37.5972C4.6693 37.7809 3.65913 38.5247 3.15405 39.5625C2.63059 40.6369 2.62141 42.8317 3.14486 43.9888C3.46628 44.696 4.16422 45.4031 4.89888 45.7429L5.44989 46H24.8268H44.2037L44.7363 45.752C45.471 45.4031 46.1873 44.696 46.5087 43.998C46.775 43.4378 46.775 43.4011 46.775 41.7757C46.775 40.141 46.775 40.1135 46.5179 39.59C46.0403 38.6258 44.9842 37.7901 44.0659 37.6431C43.8914 37.6064 43.6526 37.5697 43.5424 37.5421L43.3404 37.5054L43.3129 34.5116L43.2853 31.5178L43.0649 31.3434C42.8904 31.2056 42.7068 31.1689 42.0364 31.1689H41.2282L41.2007 28.1751L41.1731 25.1813L40.916 24.9609L40.6589 24.7405H37.2335H33.8081L33.5877 24.9793ZM39.7497 28.6435V31.1689H37.2702H34.7907V28.6435V26.118H37.2702H39.7497V28.6435ZM35.5254 35.0259V37.5054H33H30.4745V35.0259V32.5464H33H35.5254V35.0259ZM41.8619 35.0259V37.5054H39.3824H36.9029V35.0259V32.5464H39.3824H41.8619V35.0259ZM44.2037 39.1951C44.7455 39.4431 45.0853 39.8104 45.3057 40.389C45.5169 40.94 45.471 43.0062 45.2322 43.4378C45.021 43.8419 44.6077 44.2368 44.1853 44.448C43.8455 44.6133 43.3129 44.6225 24.8268 44.6225C6.34067 44.6225 5.80804 44.6133 5.46825 44.448C5.04582 44.2368 4.63257 43.8419 4.42135 43.4378C4.18258 43.0062 4.13667 40.94 4.34788 40.389C4.56828 39.8104 4.90807 39.4431 5.44989 39.1951L5.90905 38.9747H24.8268H43.7445L44.2037 39.1951Z"
                                    fill="#52C3D2" />
                                <path
                                    d="M9.67446 39.9027C9.16938 40.169 8.93061 40.4078 8.70103 40.8761C8.29696 41.7026 8.51736 42.7495 9.22448 43.374C10.3816 44.3842 12.1356 43.9067 12.6223 42.4465C12.9621 41.4271 12.4295 40.2609 11.4468 39.8568C10.9509 39.6456 10.1153 39.6639 9.67446 39.9027ZM11.0428 41.2802C11.5295 41.6659 11.254 42.4649 10.6203 42.4649C9.9867 42.4649 9.68364 41.7577 10.1336 41.3169C10.4091 41.0414 10.7214 41.0231 11.0428 41.2802Z"
                                    fill="#52C3D2" />
                                <path
                                    d="M16.8365 39.8838C15.7804 40.3705 15.312 41.6011 15.7896 42.648C16.0375 43.199 16.2855 43.4561 16.8365 43.7132C17.4242 43.9979 17.9844 43.9979 18.5905 43.7132C20.6384 42.7582 19.9772 39.7093 17.7089 39.7093C17.4058 39.7093 17.0569 39.7828 16.8365 39.8838ZM18.0119 41.1878C18.6823 41.4909 18.4436 42.4643 17.7089 42.4643C17.0477 42.4643 16.7814 41.7296 17.2865 41.298C17.562 41.0593 17.6905 41.0409 18.0119 41.1878Z"
                                    fill="#52C3D2" />
                                <path
                                    d="M23.8896 39.8926C22.4295 40.6364 22.3101 42.6568 23.6784 43.5751C25.2212 44.6128 27.2783 43.1894 26.8834 41.3711C26.764 40.7926 26.4885 40.3885 25.9926 40.0395C25.6528 39.8008 25.4967 39.7548 24.9365 39.7273C24.4039 39.7089 24.2019 39.7365 23.8896 39.8926ZM25.2855 41.316C25.7447 41.766 25.46 42.4639 24.8263 42.4639C24.4223 42.4639 24.1376 42.1976 24.1376 41.8211C24.1376 41.4721 24.4957 41.0864 24.8263 41.0864C24.9549 41.0864 25.1661 41.1874 25.2855 41.316Z"
                                    fill="#52C3D2" />
                                <path
                                    d="M30.9606 39.9389C30.2443 40.297 29.8311 40.9858 29.8311 41.8307C29.8311 42.6572 30.281 43.3551 31.0708 43.7132C31.6677 43.9979 32.2279 43.9979 32.8156 43.7132C33.3666 43.4561 33.6146 43.199 33.8625 42.648C34.2023 41.8949 34.0738 41.0409 33.5228 40.4256C32.8524 39.6818 31.8514 39.4981 30.9606 39.9389ZM32.3657 41.298C32.8707 41.7296 32.6044 42.4643 31.9432 42.4643C31.0157 42.4643 31.0341 41.1327 31.9616 41.096C32.0442 41.0868 32.2279 41.1878 32.3657 41.298Z"
                                    fill="#52C3D2" />
                                <path
                                    d="M38.1892 39.8567C37.2709 40.2515 36.7107 41.427 36.9954 42.3362C37.4821 43.8973 39.2361 44.4208 40.4299 43.3739C40.9075 42.9514 41.1371 42.4188 41.1371 41.7576C41.1371 40.5821 40.2554 39.7097 39.0616 39.7097C38.7586 39.7189 38.3637 39.7832 38.1892 39.8567ZM39.5208 41.3168C39.9708 41.7576 39.6769 42.4647 39.0432 42.4647C38.4004 42.4647 38.1157 41.675 38.6116 41.2801C38.933 41.0229 39.2453 41.0413 39.5208 41.3168Z"
                                    fill="#52C3D2" />
                            </svg>