<svg width="49" height="48" viewBox="0 0 49 48" fill="none"
                                xmlns="http://www.w3.org/2000/svg">
                                <path
                                    d="M23.4172 2.06875C23.1594 2.23203 23.125 2.5414 23.125 4.50937C23.125 6.11641 23.1508 6.56328 23.2539 6.76094C23.357 6.95859 23.3828 7.51719 23.3828 10.0695C23.3828 13.593 23.4344 13.3266 22.5148 14.143C22.2141 14.4008 21.7156 14.8391 21.4062 15.1055C20.418 15.9734 19.9969 16.6437 19.6875 17.8641C19.5242 18.5086 19.5156 18.8781 19.5156 31.0898C19.5156 43.2414 19.5242 43.6711 19.6789 44.307C19.8508 44.9688 20.1172 45.5789 20.3578 45.8453C20.4781 45.9914 20.8648 46 26.2273 46H31.9594L32.1656 45.7508C32.2859 45.6219 32.4836 45.1836 32.6211 44.7883C32.8531 44.1008 32.8703 43.9547 32.9305 41.9609C32.9648 40.8008 32.9992 38.1453 32.9992 36.057L33.0078 32.2586L33.3258 32.4391C33.8758 32.7656 34.6664 32.6453 35.2164 32.1469L35.3969 31.975L35.8352 32.6281C36.0758 32.9805 36.2734 33.307 36.2734 33.35C36.2734 33.4016 36.1273 33.4617 35.9555 33.4961C35.5344 33.5734 34.8898 33.9086 34.5031 34.2437C33.6437 35 33.5406 36.3492 34.2625 37.2945C34.5031 37.6125 35.2078 38.0508 35.6977 38.1883C35.8781 38.2312 36.0156 38.3 35.9984 38.3344C35.4484 39.3742 35.3453 39.9328 35.5773 40.6203C35.7406 41.093 36.282 41.6516 36.8148 41.8836C37.2875 42.0898 38.3102 42.1586 38.9289 42.0297L39.2125 41.9609L39.1609 42.3305C38.9805 43.5336 39.8828 45.132 41.0773 45.7164C41.7305 46.043 42.5641 46.0516 43.1742 45.7508C43.6555 45.5187 44.1195 44.943 44.2742 44.393C44.3687 44.0406 44.343 42.8977 44.2227 42.5195C44.1797 42.3734 44.2656 42.3047 44.7125 42.0898C45.9586 41.4969 46.3023 40.1477 45.5805 38.7125C45.3656 38.2914 44.532 37.3977 44.2742 37.3117C44.1797 37.2773 44.2055 37.1914 44.3859 36.925C44.9359 36.0914 44.8586 35.0602 44.1797 34.2867C43.7844 33.8398 42.9937 33.4016 42.4094 33.3156C42.057 33.2641 42.0227 33.2383 42.0742 33.075C42.2805 32.4305 42.3062 32.018 42.1773 31.5625C41.9969 30.9695 41.6617 30.5484 41.0773 30.2305C40.6391 29.9898 40.5531 29.9727 39.668 29.9727C38.8258 29.9727 38.6711 29.9984 38.2328 30.2047C37.6656 30.4625 36.9266 31.1156 36.7117 31.5453L36.557 31.8375L36.2562 31.4164L35.9469 30.9867L36.007 30.1102L36.0586 29.225L36.5312 29.1906C37.8805 29.0875 39.0406 27.8414 39.2898 26.2258C39.3414 25.8562 39.3758 25.0484 39.35 24.3867C39.3242 23.2609 39.307 23.2008 39.1094 23.0375C38.843 22.8227 38.7055 22.857 37.5195 23.4414C36.368 24.0086 35.4742 24.6789 35.0789 25.2719L34.7781 25.7188L34.4258 25.375L34.0734 25.0312L33.7555 25.3578C33.5836 25.5383 33.4375 25.7102 33.4375 25.7445C33.4375 25.7875 33.575 25.9594 33.7469 26.1313C34.2109 26.6039 34.5547 27.1797 34.5547 27.4805C34.5547 27.6352 34.6492 27.9445 34.7695 28.1766C34.95 28.5203 34.9844 28.718 34.9844 29.3023V30.007L34.6234 29.8008C34.1766 29.543 33.8414 29.5344 33.3945 29.7578C33.2055 29.8523 33.025 29.9297 32.9906 29.9297C32.9562 29.9297 32.9219 27.3687 32.9219 24.232C32.9219 18.0875 32.9133 17.9414 32.4578 16.9102C32.1141 16.1539 31.6242 15.5695 30.5414 14.6672C30.0086 14.2203 29.4672 13.7133 29.3383 13.5414L29.0977 13.232L29.0719 10.0781C29.0547 7.32812 29.0633 6.90703 29.1836 6.8125C29.2953 6.71797 29.3125 6.38281 29.3125 4.52656C29.3125 2.45547 29.3039 2.33516 29.1406 2.17188C28.9773 2.00859 28.857 2 26.2445 2C24.7406 2 23.4687 2.03437 23.4172 2.06875ZM28.2812 4.53516V6.03906H26.2187H24.1562V4.53516V3.03125H26.2187H28.2812V4.53516ZM28.0234 9.39062V11.7109H26.2187H24.4141V9.39062V7.07031H26.2187H28.0234V9.39062ZM28.0234 12.9742C28.0234 13.3008 28.3672 14.0141 28.7195 14.4094C28.8742 14.5898 29.3812 15.0453 29.8367 15.4148C30.7305 16.1367 31.1602 16.6094 31.4523 17.1852C31.882 18.0359 31.8648 17.7266 31.925 29.6719C31.9852 41.5398 31.9508 43.7398 31.6586 44.4961L31.4953 44.9258H26.2273H20.9508L20.7703 44.4531C20.5898 43.9805 20.5898 43.9719 20.5898 31.1328C20.5898 19.1617 20.5984 18.2508 20.7359 17.8039C20.9594 17.082 21.5008 16.343 22.2484 15.7328C23.8383 14.4266 24.4141 13.7047 24.4141 13.0258V12.7422H26.2187H28.0234V12.9742ZM38.3445 25.7359C38.2414 26.6211 38.0523 27.1023 37.6141 27.5492C37.2617 27.9016 36.7203 28.2109 36.4539 28.2109C35.6461 28.2109 35.3023 27.1625 35.7836 26.1227C36.0328 25.5641 36.6344 25.0484 37.6484 24.5242L38.293 24.1805L38.3617 24.5844C38.4047 24.8164 38.3961 25.3062 38.3445 25.7359ZM34.4859 30.8836L34.7523 31.15L34.5289 31.3648C34.2883 31.6141 33.8758 31.6656 33.6609 31.4766C33.4805 31.3391 33.4891 30.9695 33.6695 30.7719C33.8758 30.5398 34.1852 30.5828 34.4859 30.8836ZM40.2867 31.0039C40.9914 31.2102 41.3437 31.7344 41.2148 32.4047C41.0945 33.0492 39.8398 33.9688 39.0664 33.9688C38.8687 33.9688 38.5422 33.8742 38.3016 33.7539C38.0695 33.6336 37.8289 33.5391 37.7687 33.5391C37.6398 33.5391 37.3906 33.0148 37.3906 32.7312C37.3906 31.9922 38.1984 31.2016 39.1695 30.9695C39.6508 30.8578 39.8055 30.8578 40.2867 31.0039ZM42.6414 34.4414C43.5008 34.7508 43.9562 35.5586 43.6297 36.1859C43.3891 36.6414 43.1227 36.8047 42.5727 36.8391C42.2891 36.8648 41.9109 36.9422 41.7219 37.0195C41.3094 37.1914 40.9828 37.1398 40.4586 36.8047C39.118 35.9539 39.9258 34.3125 41.6961 34.3125C42.0055 34.3125 42.4352 34.3727 42.6414 34.4414ZM37.8977 34.7164C38.4906 35.0172 38.8172 35.5586 38.7141 36.0742C38.6281 36.5297 38.1211 37.0195 37.5539 37.1828C35.6461 37.75 33.9617 36.1945 35.1906 35.0086C35.8523 34.3641 36.9695 34.2523 37.8977 34.7164ZM43.3461 38.0078C44.1281 38.3 44.7898 39.0906 44.9187 39.8812C45.0305 40.5859 44.6094 41.2047 43.9219 41.3164C43.5953 41.368 43.5523 41.3508 43.1398 40.9812C42.8992 40.7664 42.5125 40.5172 42.2805 40.4398C41.9195 40.3109 41.825 40.225 41.6703 39.8984C41.2836 39.0992 41.4641 38.3258 42.1258 37.9906C42.5039 37.793 42.7789 37.793 43.3461 38.0078ZM39.582 38.2312C40.0203 38.4375 40.2437 38.7297 40.2867 39.1508C40.4586 40.6461 37.8891 41.7633 36.7977 40.6633C35.8523 39.7266 37.0984 38.0938 38.7484 38.0938C39.0664 38.0938 39.4187 38.1539 39.582 38.2312ZM42.0141 41.4367C42.4008 41.6344 42.8992 42.15 43.1055 42.5625C43.3203 42.9836 43.3719 43.8945 43.2086 44.2984C42.7531 45.3984 41.1891 45.0805 40.4758 43.7398C39.9859 42.8203 40.0977 41.8148 40.7336 41.4195C41.0344 41.2305 41.6273 41.2391 42.0141 41.4367Z"
                                    fill="#52C3D2" />
                                <path
                                    d="M24.9215 17.6316C23.2629 18.1644 22.0684 19.5738 21.8191 21.2925C21.7418 21.8683 21.7418 22.0917 21.8621 22.6589C22.0941 23.7847 22.7043 24.8074 23.4606 25.3402L23.8129 25.5894V28.305C23.8129 30.823 23.8215 31.0292 23.9676 31.1582C24.2168 31.3902 24.5262 31.33 25.3941 30.9003L26.202 30.4964L27.0613 30.9003C27.9723 31.33 28.2731 31.3902 28.4879 31.1667C28.6082 31.055 28.6254 30.6683 28.6254 28.3136V25.5894L28.9777 25.3402C29.7426 24.7988 30.4215 23.6558 30.6106 22.5816C30.9887 20.3988 29.5449 18.1644 27.3879 17.5886C26.7691 17.4253 25.5145 17.4425 24.9215 17.6316ZM27.3621 18.6371C27.9121 18.8261 28.591 19.3332 28.9348 19.8058C29.7426 20.9058 29.8543 22.2636 29.2184 23.4925C28.9434 24.0425 28.2645 24.6613 27.6113 24.9707C27.0871 25.2199 26.9582 25.2457 26.2191 25.2457C25.4801 25.2457 25.3512 25.2199 24.827 24.9707C23.7613 24.4636 23.0652 23.5527 22.8504 22.3667C22.6613 21.3613 23.0481 20.2183 23.8301 19.4449C24.7582 18.5339 26.1504 18.216 27.3621 18.6371ZM26.0902 26.2683C26.4684 26.2769 26.9582 26.2425 27.1902 26.2082L27.5941 26.1394V28.0816V30.0152L26.9926 29.7144C26.666 29.5511 26.3137 29.4136 26.2191 29.4136C26.1246 29.4136 25.7723 29.5511 25.4457 29.7144L24.8441 30.0152V28.0472V26.0707L25.1277 26.1652C25.2738 26.2253 25.7121 26.2683 26.0902 26.2683Z"
                                    fill="#52C3D2" />
                                <path
                                    d="M5.55926 21.0094C5.43035 21.2156 4.75145 24.2492 4.52801 25.6328C4.08113 28.3742 4.16707 30.1875 4.82879 31.5023C5.45613 32.7398 6.34988 33.6937 7.38973 34.218C7.65613 34.3555 8.26629 34.5875 8.73895 34.7336L9.60691 35.0086L9.66707 36.8648C9.70145 37.8875 9.70145 39.7438 9.66707 40.9898C9.61551 43.0695 9.59832 43.2672 9.45223 43.3445C9.36629 43.3875 8.72176 43.4906 8.02566 43.5594C6.37566 43.7398 5.94598 43.8172 5.61941 44.0234C5.00066 44.393 4.61395 45.4586 4.9491 45.8281C5.10379 46 5.24129 46 10.8788 46C16.5163 46 16.6538 46 16.8085 45.8281C17.0147 45.5961 16.946 45.0117 16.6452 44.5133C16.3272 43.9633 15.9319 43.8 14.66 43.6797C13.4139 43.5766 12.3569 43.4305 12.228 43.3445C12.1077 43.2758 12.0132 37.9734 12.0991 36.2547L12.1679 34.9742L12.8554 34.7766C14.2733 34.3727 15.3475 33.6336 16.121 32.5594C16.628 31.8461 16.9889 31.0555 17.1608 30.2906C17.3585 29.4055 17.2897 27.0422 17.0233 25.5469C16.7225 23.8195 16.1038 21.0781 15.9921 20.9492C15.8975 20.8375 15.1499 20.8203 10.7843 20.8203H5.67957L5.55926 21.0094ZM15.1757 21.843C15.3218 22.0836 16.0952 26.0109 16.1811 26.9219L16.2069 27.2227L15.2616 27.2141C14.153 27.2055 13.4311 27.0336 12.0905 26.4492C11.0507 26.0023 10.5179 25.8477 9.55535 25.7102C8.70457 25.5898 7.24363 25.65 6.24676 25.8391C5.86863 25.9164 5.55066 25.9594 5.53348 25.9422C5.4991 25.9078 5.92879 23.725 6.1952 22.5562L6.38426 21.7656H10.7499C13.4054 21.7656 15.1413 21.8 15.1757 21.843ZM9.84754 26.793C10.346 26.8789 10.9647 27.0852 11.6952 27.3945C13.2421 28.0648 13.921 28.2281 15.1929 28.2453L16.2327 28.2539L16.2843 28.4773C16.3358 28.7437 16.2069 30.0242 16.0866 30.4195C15.8975 31.0555 15.3304 31.9664 14.7889 32.5164C14.1358 33.1781 13.5772 33.4875 12.3225 33.8742C11.635 34.0891 11.403 34.1922 11.2913 34.3727C11.0679 34.7164 10.9647 37.5609 11.0593 40.9125C11.1452 43.9547 11.1624 43.9977 11.7382 44.2469C12.1163 44.4016 13.285 44.5992 14.5139 44.7023C15.0468 44.7539 15.5538 44.8312 15.6311 44.8742C15.7257 44.9344 14.1874 44.9602 10.9218 44.9602C7.38113 44.9602 6.10926 44.9344 6.22957 44.8656C6.31551 44.8227 6.89988 44.7281 7.51863 44.6594C9.64129 44.4445 10.1913 44.2984 10.4577 43.8859C10.5952 43.6883 10.621 43.3273 10.6897 41.1703C10.7413 39.6578 10.7327 37.8703 10.6897 36.6242C10.5866 34.1062 10.6382 34.2094 9.16004 33.8055C7.81082 33.4359 6.83973 32.7742 6.16082 31.7516C5.66238 30.9953 5.45613 30.4539 5.33582 29.5773C5.21551 28.7437 5.29285 27.1023 5.45613 27.0422C5.5077 27.025 5.98035 26.9305 6.49598 26.8445C7.66473 26.6383 8.85926 26.6211 9.84754 26.793Z"
                                    fill="#52C3D2" />
                            </svg>